<svg width="110.625000" height="21.201172" viewBox="0 0 110.625 21.2012" fill="none" xmlns="http://www.w3.org/2000/svg" xmlns:xlink="http://www.w3.org/1999/xlink">
	<desc>
			Created with Pixso.
	</desc>
	<defs/>
	<path id="Episode(s)" d="M89.09 21.2L89.09 20.03C87.53 20.03 86.22 19.12 85.16 17.3C84.09 15.46 83.56 13.22 83.56 10.59C83.56 7.95 84.09 5.72 85.16 3.89Q86.41 1.75 88.11 1.28Q88.58 1.16 89.09 1.16L89.09 0C87.17 0 85.56 0.98 84.26 2.95C82.97 4.92 82.32 7.47 82.32 10.59C82.32 13.72 82.97 16.27 84.26 18.24C85.56 20.21 87.17 21.2 89.09 21.2ZM103.85 20.03L103.85 21.2C105.77 21.2 107.38 20.21 108.68 18.24C109.97 16.27 110.62 13.72 110.62 10.59C110.62 7.47 109.97 4.92 108.68 2.95C107.38 0.98 105.77 0 103.85 0L103.85 1.16Q104.36 1.16 104.83 1.28Q106.53 1.75 107.78 3.89C108.85 5.72 109.38 7.95 109.38 10.59C109.38 13.22 108.85 15.46 107.78 17.3Q106.53 19.44 104.83 19.91Q104.36 20.03 103.85 20.03ZM26.33 2.76C26.33 2.99 26.41 3.17 26.56 3.31C26.7 3.45 26.9 3.52 27.15 3.52C27.41 3.52 27.61 3.45 27.75 3.31C27.9 3.17 27.97 2.99 27.97 2.76Q27.97 2.54 27.88 2.37Q27.83 2.28 27.75 2.2C27.6 2.07 27.4 2 27.15 2C26.91 2 26.71 2.07 26.56 2.2C26.41 2.35 26.33 2.53 26.33 2.76ZM100.33 11.06C100.67 11.41 100.85 11.86 100.85 12.4Q100.85 13.04 100.58 13.54Q100.27 14.11 99.61 14.49C98.8 14.96 97.75 15.2 96.47 15.2C95.18 15.2 94.13 14.95 93.33 14.46C92.51 13.96 92.1 13.21 92.1 12.21L92.1 11.42L90.79 11.42L90.79 12.21C90.79 13.55 91.32 14.58 92.39 15.3Q93.98 16.39 96.46 16.39C98.11 16.39 99.47 16.04 100.55 15.35Q101.37 14.81 101.78 14.06Q102.16 13.33 102.16 12.4Q102.16 11.33 101.67 10.59Q101.65 10.57 101.64 10.54C101.28 10.05 100.81 9.68 100.24 9.44C99.66 9.19 99.03 9 98.35 8.85C98.21 8.82 97.63 8.71 96.6 8.51C95.57 8.32 94.83 8.15 94.38 8.02Q93.49 7.76 92.97 7.2C92.64 6.83 92.47 6.37 92.47 5.82C92.47 4.98 92.83 4.34 93.56 3.88C94.28 3.43 95.22 3.2 96.38 3.2C97.57 3.2 98.52 3.44 99.23 3.91C99.94 4.39 100.3 5.1 100.3 6.06L100.3 6.46L101.63 6.46L101.63 6.06C101.63 4.75 101.14 3.75 100.18 3.04C99.21 2.35 97.94 2 96.38 2C94.86 2 93.6 2.34 92.61 3.01C91.63 3.7 91.14 4.63 91.14 5.82C91.14 6.6 91.32 7.25 91.67 7.77C92.03 8.3 92.49 8.68 93.06 8.92Q93.93 9.28 94.97 9.51Q95.47 9.61 96.87 9.86C97.81 10.02 98.49 10.16 98.92 10.28C99.52 10.44 99.99 10.7 100.33 11.06ZM0 16.2L10.09 16.2L10.09 15L1.31 15L1.31 9.61L8.95 9.61L8.95 8.41L1.31 8.41L1.31 3.39L10.09 3.39L10.09 2.19L0 2.19L0 16.2ZM57.16 14.97C58.13 15.92 59.36 16.39 60.83 16.39C62.5 16.42 63.82 15.81 64.78 14.58L64.82 14.52L64.9 14.52L64.9 16.2L66.14 16.2L66.14 2.19L64.9 2.19L64.9 8.08L64.82 8.08L64.78 8.01L64.76 7.99C64.76 7.99 64.75 7.98 64.74 7.96C63.8 6.77 62.5 6.18 60.83 6.2C59.36 6.2 58.13 6.67 57.16 7.62Q56.64 8.14 56.3 8.75Q55.7 9.86 55.7 11.29Q55.7 12.76 56.32 13.88Q56.66 14.47 57.16 14.97ZM22.08 7.62C21.09 6.67 19.86 6.2 18.39 6.2Q16.89 6.18 15.78 6.83Q15.02 7.27 14.45 8.01L14.41 8.08L14.33 8.08L14.33 6.39L13.09 6.39L13.09 20.2L14.33 20.2L14.33 14.52L14.41 14.52L14.45 14.58C15.37 15.81 16.69 16.42 18.39 16.39C19.86 16.39 21.09 15.92 22.08 14.97C23.05 14.02 23.53 12.79 23.53 11.29Q23.53 9.84 22.92 8.73Q22.59 8.13 22.08 7.62ZM38.23 12.46C38.59 12.7 38.77 13.04 38.77 13.45C38.77 14.64 37.65 15.23 35.4 15.24Q33.79 15.24 32.91 14.68C32.31 14.31 32.02 13.77 32.02 13.05L32.02 12.68L30.78 12.68L30.78 13.05C30.78 14.16 31.21 15 32.08 15.56C32.95 16.11 34.05 16.39 35.4 16.39C36.27 16.39 37.04 16.3 37.7 16.12C38.37 15.94 38.92 15.63 39.36 15.17C39.8 14.72 40.01 14.14 40.01 13.45C40.01 12.81 39.83 12.28 39.45 11.88Q39.27 11.69 39.06 11.54Q38.6 11.21 38.01 11.06C37.47 10.94 36.85 10.82 36.14 10.7C35.6 10.62 34.98 10.54 34.27 10.45C33.66 10.39 33.17 10.24 32.81 10C32.44 9.75 32.26 9.44 32.26 9.04Q32.26 8.65 32.42 8.36Q32.97 7.36 35.34 7.36Q37.49 7.36 38.15 8.35Q38.44 8.79 38.44 9.42L39.67 9.42C39.67 8.34 39.28 7.54 38.49 7.01C37.7 6.47 36.65 6.2 35.34 6.2C34.05 6.2 33.01 6.44 32.21 6.93C31.42 7.42 31.02 8.12 31.02 9.04C31.02 9.68 31.21 10.19 31.59 10.59C31.98 11 32.46 11.27 33.03 11.39C33.61 11.53 34.23 11.65 34.9 11.74C35.51 11.84 36.13 11.92 36.77 11.99C37.38 12.05 37.86 12.2 38.23 12.46ZM42.61 11.29C42.61 12.8 43.11 14.02 44.1 14.98C45.08 15.92 46.33 16.39 47.86 16.39Q49.45 16.39 50.64 15.71Q51.17 15.41 51.62 14.98C52.6 14.03 53.09 12.8 53.09 11.29C53.09 9.78 52.6 8.56 51.62 7.61C50.63 6.67 49.38 6.2 47.86 6.2Q46.27 6.2 45.07 6.88Q44.55 7.18 44.1 7.61C43.11 8.56 42.61 9.79 42.61 11.29ZM79.56 12.06L79.61 11.29C79.61 9.78 79.12 8.56 78.14 7.61C77.16 6.67 75.9 6.2 74.38 6.2C72.86 6.2 71.6 6.67 70.62 7.61C69.63 8.56 69.14 9.79 69.14 11.29C69.14 12.8 69.63 14.02 70.62 14.98C71.6 15.92 72.87 16.39 74.42 16.39C75.08 16.39 75.7 16.29 76.27 16.1C76.84 15.92 77.29 15.7 77.62 15.46C77.93 15.24 78.23 14.97 78.5 14.65C78.75 14.36 78.92 14.14 79 14C79.05 13.91 79.1 13.81 79.14 13.72L77.64 13.72L77.51 13.87C77.36 14.11 77.05 14.37 76.57 14.67C76.32 14.83 76 14.96 75.62 15.05Q75.04 15.2 74.42 15.2C73.85 15.2 73.31 15.11 72.82 14.92C72.32 14.73 71.93 14.49 71.65 14.2C71.38 13.94 71.15 13.64 70.96 13.33C70.64 12.78 70.47 12.36 70.47 12.06L79.56 12.06ZM27.77 6.39L26.53 6.39L26.53 16.2L27.77 16.2L27.77 6.39ZM21.16 14.08C20.43 14.83 19.47 15.2 18.3 15.2C17.12 15.2 16.17 14.84 15.44 14.11Q15.06 13.73 14.81 13.29Q14.33 12.43 14.33 11.29Q14.33 10.16 14.81 9.3Q15.06 8.85 15.44 8.48C16.19 7.76 17.14 7.4 18.3 7.4C19.47 7.4 20.43 7.77 21.16 8.51Q21.59 8.96 21.86 9.49Q22.25 10.3 22.25 11.29Q22.25 12.29 21.86 13.09Q21.59 13.63 21.16 14.08ZM50.72 14.08C49.99 14.83 49.03 15.2 47.86 15.2C46.68 15.2 45.72 14.83 45 14.08C44.26 13.32 43.89 12.39 43.89 11.29C43.89 10.19 44.26 9.27 45 8.51C45.73 7.77 46.68 7.4 47.86 7.4C49.03 7.4 49.99 7.77 50.72 8.51C51.45 9.26 51.81 10.19 51.81 11.29C51.81 12.4 51.45 13.33 50.72 14.08ZM56.98 11.29C56.98 10.19 57.35 9.27 58.08 8.51C58.82 7.77 59.77 7.4 60.94 7.4C62.1 7.4 63.05 7.76 63.79 8.48C64.53 9.22 64.9 10.15 64.9 11.29C64.9 12.43 64.53 13.37 63.79 14.11C63.06 14.84 62.11 15.2 60.94 15.2C59.76 15.2 58.81 14.83 58.08 14.08C57.35 13.32 56.98 12.39 56.98 11.29ZM78.32 10.89L70.43 10.89C70.43 10.11 70.78 9.32 71.48 8.55Q71.72 8.28 72.01 8.08Q72.95 7.4 74.38 7.4Q75.81 7.4 76.75 8.08Q77.04 8.28 77.28 8.55C77.97 9.32 78.32 10.1 78.32 10.89Z" fill="#FFFFFF" fill-opacity="1.000000" fill-rule="evenodd"/>
</svg>
