<svg width="48.000000" height="48.000000" viewBox="0 0 48 48" fill="none" xmlns="http://www.w3.org/2000/svg" xmlns:xlink="http://www.w3.org/1999/xlink">
	<desc>
			Created with Pixso.
	</desc>
	<defs>
		<clipPath id="clip1_3071">
			<rect id="Gender" rx="0.000000" width="47.000000" height="47.000000" transform="translate(0.500000 0.500000)" fill="white" fill-opacity="0"/>
		</clipPath>
		<linearGradient x1="2.423672" y1="-1.534496" x2="41.094166" y2="53.827484" id="paint_linear_1_3073_0" gradientUnits="userSpaceOnUse">
			<stop stop-color="#9DFE00"/>
			<stop offset="1.000000" stop-color="#14D9E6"/>
		</linearGradient>
	</defs>
	<rect id="Gender" rx="0.000000" width="47.000000" height="47.000000" transform="translate(0.500000 0.500000)" fill="#FFFFFF" fill-opacity="0"/>
	<g clip-path="url(#clip1_3071)">
		<path id="Vector" d="M37.17 10L28 10L28 6L44 6L44 22L40 22L40 12.82L32.92 19.9C35.23 22.92 36.3 26.71 35.92 30.5C35.54 34.28 33.73 37.78 30.87 40.29C28.01 42.79 24.3 44.11 20.49 43.99C16.69 43.86 13.08 42.29 10.39 39.6C7.7 36.91 6.13 33.3 6 29.5C5.88 25.69 7.2 21.98 9.7 19.12C12.21 16.26 15.71 14.45 19.49 14.07C23.28 13.69 27.07 14.76 30.09 17.07L37.17 10Z" fill="url(#paint_linear_1_3073_0)" fill-opacity="1.000000" fill-rule="nonzero"/>
	</g>
</svg>
