<svg width="48.000000" height="48.000000" viewBox="0 0 48 48" fill="none" xmlns="http://www.w3.org/2000/svg" xmlns:xlink="http://www.w3.org/1999/xlink">
	<desc>
			Created with Pixso.
	</desc>
	<defs>
		<clipPath id="clip1_3056">
			<rect id="Location" rx="0.000000" width="47.000000" height="47.000000" transform="translate(0.500000 0.500000)" fill="white" fill-opacity="0"/>
		</clipPath>
		<linearGradient x1="4.987129" y1="-4.327618" x2="37.563946" y2="56.862064" id="paint_linear_1_3058_0" gradientUnits="userSpaceOnUse">
			<stop stop-color="#9DFE00"/>
			<stop offset="1.000000" stop-color="#14D9E6"/>
		</linearGradient>
	</defs>
	<rect id="Location" rx="0.000000" width="47.000000" height="47.000000" transform="translate(0.500000 0.500000)" fill="#FFFFFF" fill-opacity="0"/>
	<g clip-path="url(#clip1_3056)">
		<path id="Vector" d="M22 35.87C17.96 35.36 14.27 33.33 11.68 30.19C9.09 27.06 7.79 23.05 8.04 19C8.3 14.94 10.09 11.13 13.05 8.34C16.02 5.55 19.93 4 24 4C28.07 3.99 31.99 5.54 34.96 8.33C37.93 11.12 39.72 14.93 39.98 18.99C40.23 23.06 38.93 27.07 36.33 30.2C33.73 33.34 30.04 35.37 26 35.87L26 40.02C33.89 40.2 40 41.47 40 43C40 44.65 32.83 46 24 46C15.16 46 8 44.65 8 43C8 41.47 14.1 40.2 22 40.02L22 35.87ZM24 24C25.06 24 26.07 23.57 26.82 22.82C27.57 22.07 28 21.06 28 20C28 18.93 27.57 17.92 26.82 17.17C26.07 16.42 25.06 16 24 16C22.93 16 21.92 16.42 21.17 17.17C20.42 17.92 20 18.93 20 20C20 21.06 20.42 22.07 21.17 22.82C21.92 23.57 22.93 24 24 24Z" fill="url(#paint_linear_1_3058_0)" fill-opacity="1.000000" fill-rule="nonzero"/>
	</g>
</svg>
