<svg width="48.000000" height="48.000000" viewBox="0 0 48 48" fill="none" xmlns="http://www.w3.org/2000/svg" xmlns:xlink="http://www.w3.org/1999/xlink">
	<desc>
			Created with Pixso.
	</desc>
	<defs>
		<clipPath id="clip1_3065">
			<rect id="origin" rx="0.000000" width="47.000000" height="47.000000" transform="translate(0.500000 0.500000)" fill="white" fill-opacity="0"/>
		</clipPath>
		<linearGradient x1="0.235306" y1="-3.931061" x2="40.941162" y2="54.344803" id="paint_linear_1_3067_0" gradientUnits="userSpaceOnUse">
			<stop stop-color="#9DFE00"/>
			<stop offset="1.000000" stop-color="#14D9E6"/>
		</linearGradient>
	</defs>
	<rect id="origin" rx="0.000000" width="47.000000" height="47.000000" transform="translate(0.500000 0.500000)" fill="#FFFFFF" fill-opacity="0"/>
	<g clip-path="url(#clip1_3065)">
		<path id="Vector" d="M24 44C12.95 44 4 35.04 4 24C4 12.95 12.95 4 24 4C35.04 4 44 12.95 44 24C44 35.04 35.04 44 24 44ZM36.71 31.9L36.71 31.69C36.71 29.85 36.71 29 35.4 28.26C34.98 28.02 34.55 27.8 34.11 27.61C33.38 27.27 32.89 27.06 32.24 26.1C32.16 25.98 32.08 25.87 32 25.75C31.31 24.7 30.82 23.95 28.92 24.25C25.19 24.84 24.91 25.49 24.75 26.6L24.72 26.78C24.48 28.4 24.44 28.95 25.11 29.66C27.64 32.31 29.16 34.23 29.62 35.34C29.84 35.89 30.42 37.55 30.02 39.18C32.45 38.21 34.61 36.68 36.33 34.71C36.55 33.96 36.71 33.03 36.71 31.9ZM24 7.66C19.36 7.66 15.18 9.59 12.2 12.69C12.56 12.94 12.87 13.29 13.08 13.76C13.49 14.68 13.49 15.62 13.49 16.45C13.49 17.11 13.49 17.73 13.7 18.18C13.98 18.8 15.23 19.06 16.33 19.29C16.72 19.37 17.12 19.46 17.49 19.56C18.5 19.84 19.29 20.75 19.91 21.48C20.17 21.78 20.56 22.23 20.75 22.34C20.85 22.27 21.18 21.92 21.33 21.34C21.46 20.9 21.42 20.52 21.24 20.3C20.12 18.98 20.19 16.44 20.53 15.51C21.08 14.03 22.78 14.14 24.02 14.22C24.48 14.25 24.92 14.28 25.25 14.24C26.49 14.08 26.88 12.18 27.15 11.81C27.73 11.02 29.52 9.81 30.63 9.06C28.54 8.14 26.28 7.66 24 7.66Z" fill="url(#paint_linear_1_3067_0)" fill-opacity="1.000000" fill-rule="nonzero"/>
	</g>
</svg>
