<svg width="32.000000" height="32.000000" viewBox="0 0 32 32" fill="none" xmlns="http://www.w3.org/2000/svg" xmlns:xlink="http://www.w3.org/1999/xlink">
	<desc>
			Created with Pixso.
	</desc>
	<defs>
		<clipPath id="clip1_3052">
			<rect id="Redirect" rx="0.000000" width="31.000000" height="31.000000" transform="translate(0.500000 0.500000)" fill="white" fill-opacity="0"/>
		</clipPath>
	</defs>
	<rect id="Redirect" rx="0.000000" width="31.000000" height="31.000000" transform="translate(0.500000 0.500000)" fill="#FFFFFF" fill-opacity="0"/>
	<g clip-path="url(#clip1_3052)">
		<path id="Vector" d="M13.33 8L13.33 10.66L6.66 10.66L6.66 25.33L21.33 25.33L21.33 18.66L24 18.66L24 26.66C24 27.02 23.85 27.35 23.6 27.6C23.35 27.85 23.02 28 22.66 28L5.33 28C4.97 28 4.64 27.85 4.39 27.6C4.14 27.35 4 27.02 4 26.66L4 9.33C4 8.97 4.14 8.64 4.39 8.39C4.64 8.14 4.97 8 5.33 8L13.33 8ZM28 4L28 16L22.94 10.94L14.94 18.94L13.05 17.05L21.05 9.05L16 4L28 4Z" fill="#FFFFFF" fill-opacity="1.000000" fill-rule="nonzero"/>
	</g>
</svg>
