<svg width="48.000000" height="48.000000" viewBox="0 0 48 48" fill="none" xmlns="http://www.w3.org/2000/svg" xmlns:xlink="http://www.w3.org/1999/xlink">
	<desc>
			Created with Pixso.
	</desc>
	<defs>
		<clipPath id="clip1_3077">
			<rect id="Species" rx="0.000000" width="47.000000" height="47.000000" transform="translate(0.500000 0.500000)" fill="white" fill-opacity="0"/>
		</clipPath>
		<linearGradient x1="2.611767" y1="-3.931059" x2="39.247066" y2="54.344833" id="paint_linear_1_3079_0" gradientUnits="userSpaceOnUse">
			<stop stop-color="#9DFE00"/>
			<stop offset="1.000000" stop-color="#14D9E6"/>
		</linearGradient>
	</defs>
	<rect id="Species" rx="0.000000" width="47.000000" height="47.000000" transform="translate(0.500000 0.500000)" fill="#FFFFFF" fill-opacity="0"/>
	<g clip-path="url(#clip1_3077)">
		<path id="Vector" d="M12.76 7.93C15.95 5.38 19.91 3.99 24 4C28.25 4 32.15 5.47 35.23 7.93L38.14 5.03L40.97 7.85L38.06 10.76C40.61 13.95 42 17.91 42 22L42 24L6 24L6 22C6 17.75 7.47 13.84 9.93 10.76L7.03 7.85L9.85 5.03L12.76 7.93L12.76 7.93ZM6 28L42 28L42 42C42 42.53 41.78 43.03 41.41 43.41C41.03 43.78 40.53 44 40 44L8 44C7.46 44 6.96 43.78 6.58 43.41C6.21 43.03 6 42.53 6 42L6 28ZM18 18C18.53 18 19.03 17.78 19.41 17.41C19.78 17.03 20 16.53 20 16C20 15.46 19.78 14.96 19.41 14.58C19.03 14.21 18.53 14 18 14C17.46 14 16.96 14.21 16.58 14.58C16.21 14.96 16 15.46 16 16C16 16.53 16.21 17.03 16.58 17.41C16.96 17.78 17.46 18 18 18ZM30 18C30.53 18 31.03 17.78 31.41 17.41C31.78 17.03 32 16.53 32 16C32 15.46 31.78 14.96 31.41 14.58C31.03 14.21 30.53 14 30 14C29.46 14 28.96 14.21 28.58 14.58C28.21 14.96 28 15.46 28 16C28 16.53 28.21 17.03 28.58 17.41C28.96 17.78 29.46 18 30 18Z" fill="url(#paint_linear_1_3079_0)" fill-opacity="1.000000" fill-rule="nonzero"/>
	</g>
</svg>
